<svg xmlns="http://www.w3.org/2000/svg" xmlns:xlink="http://www.w3.org/1999/xlink" width="171" height="86"><defs><path id="a" d="M0 .631h68.116V85H0z"/><path id="c" d="M.788.03h91.305v53.705H.788z"/></defs><g fill="none" fill-rule="evenodd"><g transform="translate(0 .012)"><mask id="b" fill="#fff"><use xlink:href="#a"/></mask><path fill="#05412E" d="M68.056 37.722c-.591 9.756-4.435 18.336-10.617 24.366v.002l.002.001s-.08.078-.112.216l-.005.013c-1.363 5.743-4.23 10.928-8.225 15.038-.02.023-.04.043-.062.065a31.47 31.47 0 01-7.277 5.643A14.942 14.942 0 0134.444 85c-2.538 0-5.068-.668-7.317-1.934a31.294 31.294 0 01-7-5.362l-.113-.114a32.183 32.183 0 01-8.182-14.217l-.003-.005c-.051-.188-.155-.253-.155-.253l.001-.002C4.518 57.095 0 48.143 0 37.723 0 20.14 13.165 4.711 30.88 3.01l1.334-1.492A2.661 2.661 0 0134.156.63l.118.001c8.739.246 17.788 4.107 23.938 10.464 5.694 5.886 9.112 13.466 9.757 21.549a32.71 32.71 0 01.086 5.077" mask="url(#b)"/></g><g transform="translate(78 14.012)"><mask id="d" fill="#fff"><use xlink:href="#c"/></mask><path fill="#05412E" d="M82.541 10.7c-.859-.355-1.656-.517-2.387-.517-2.325 0-4.078 1.87-4.078 4.546 0 1.773.893 2.933 2.294 2.933 1.879 0 3.28-1.128 3.535-2.9l.636-4.062zm5.447-3.514l-2.23 14.344h-4.33l-.128-1.385c-1.37 1.256-3.058 1.901-5.064 1.901-3.28 0-5.319-2.45-5.319-6.285 0-2.902.988-5.255 2.931-7.06 1.973-1.838 4.458-2.74 7.483-2.74 2.644 0 4.873.419 6.657 1.225zM70.09 11.989l-1.498 9.541h-4.904l1.337-8.51c.224-1.514-.413-2.45-1.688-2.45-1.241 0-2.196.967-2.419 2.483L59.58 21.53h-4.618l1.305-8.477c.256-1.516-.413-2.482-1.656-2.482-1.273 0-2.196.966-2.451 2.482l-1.306 8.477H45.95l2.356-15.086 4.395-.483.032 1.837c1.37-1.224 2.867-1.837 4.458-1.837 1.688 0 2.93.677 3.727 1.998 1.433-1.321 2.93-1.998 4.49-1.998 3.407 0 5.223 2.417 4.682 6.028zm-29.65-1.29c-.86-.354-1.656-.516-2.388-.516-2.325 0-4.078 1.87-4.078 4.546 0 1.773.893 2.933 2.294 2.933 1.88 0 3.28-1.128 3.536-2.9l.637-4.062zm5.446-3.513l-2.23 14.344h-4.33l-.128-1.385c-1.369 1.256-3.056 1.901-5.064 1.901-3.28 0-5.317-2.45-5.317-6.285 0-2.902.986-5.255 2.93-7.06 1.974-1.838 4.457-2.74 7.484-2.74 2.642 0 4.872.419 6.655 1.225zM4.77 21.53L8.15.03h5.35l3.98 9.38L24.453.03h5.319l-3.375 21.5h-5.32L23.02 9.346l-4.968 6.769h-3.217l-2.834-6.77-1.91 12.185H4.77zm82.45 10.285h4.872l-2.166 13.83c-.382 2.45-1.4 4.416-3.056 5.866-1.625 1.482-3.632 2.224-5.988 2.224-2.357 0-4.522-.58-6.529-1.708l2.293-3.74c1.624.871 3.026 1.29 4.172 1.29 2.198 0 3.758-1.257 4.108-3.288l.16-1c-1.339 1.097-2.771 1.645-4.268 1.645-3.439 0-5.382-2.45-4.777-6.092l1.401-8.995 4.969-.321-1.243 7.994c-.255 1.708.479 2.772 1.974 2.772 1.498 0 2.58-1.064 2.867-2.772l1.21-7.705zm-17.358 6.028c.255-1.515-.731-2.514-2.484-2.514-1.56 0-2.961.967-3.63 2.482l6.114.032zm3.631-3.836c1.02 1.774 1.147 4.126.35 6.995H63.4c.35 1.709 1.719 2.676 3.599 2.676 1.496 0 3.089-.451 4.745-1.386l.955 3.126c-2.325 1.322-4.586 1.967-6.783 1.967-2.07 0-3.758-.613-5.064-1.805-1.306-1.225-1.942-2.901-1.942-5.03 0-2.707.859-4.931 2.58-6.64 1.75-1.74 3.949-2.61 6.591-2.61 2.58 0 4.394.902 5.414 2.707zm-15.51 3.321l-1.496 9.541h-4.905l1.306-8.22c.255-1.676-.509-2.74-2.006-2.74-1.433 0-2.548 1.096-2.835 2.773l-1.274 8.187H41.87l2.357-15.085 4.394-.484.097 1.87c1.337-1.258 2.833-1.87 4.49-1.87 3.44 0 5.381 2.417 4.776 6.028zM36.68 38.746c0-1.773-.988-2.9-2.612-2.9-1.878 0-3.312 1.353-3.693 3.513-.352 2.095.7 3.48 2.58 3.48 2.133 0 3.725-1.676 3.725-4.093zm-9.33 6.801c-1.18-1.224-1.784-2.868-1.784-4.899 0-2.708.86-4.932 2.611-6.706 1.751-1.772 3.949-2.642 6.592-2.642 2.07 0 3.693.612 4.872 1.837 1.211 1.225 1.816 2.869 1.816 4.9 0 2.707-.86 4.932-2.611 6.704-1.751 1.773-3.95 2.644-6.593 2.644-2.07 0-3.693-.613-4.904-1.838zM.788 46.87l3.374-21.5h5.35l3.982 9.38 6.975-9.38h5.317l-3.375 21.5h-5.319l1.944-12.184-4.969 6.77h-3.216l-2.835-6.77-1.91 12.184H.788z" mask="url(#d)"/></g><path fill="#8DC73F" d="M147.733 71.53c.072-.427-.206-.71-.7-.71-.44 0-.833.273-1.023.7l1.723.01zm1.023-1.081c.287.5.322 1.163.098 1.972h-2.941c.097.481.484.754 1.013.754.422 0 .87-.127 1.336-.39l.27.881c-.655.373-1.293.555-1.912.555-.581 0-1.057-.172-1.425-.509-.368-.345-.548-.818-.548-1.418 0-.764.243-1.391.727-1.873.493-.491 1.112-.736 1.857-.736.726 0 1.237.255 1.525.764zm-4.547.936l-.422 2.69h-1.38l.376-2.4c.063-.427-.117-.69-.475-.69-.35 0-.62.272-.682.7l-.377 2.39h-1.3l.367-2.39c.072-.428-.117-.7-.466-.7-.36 0-.62.272-.69.7l-.369 2.39h-1.381l.664-4.254 1.237-.136.01.518c.385-.345.806-.518 1.254-.518.477 0 .827.19 1.05.564.404-.373.826-.564 1.266-.564.959 0 1.47.682 1.318 1.7zm-8.44.4c0-.5-.279-.818-.736-.818-.529 0-.932.381-1.04.99-.099.592.197.983.726.983.601 0 1.05-.473 1.05-1.155zm-2.628 1.918c-.332-.346-.503-.81-.503-1.382 0-.763.242-1.39.736-1.89.493-.501 1.111-.746 1.856-.746.583 0 1.041.173 1.373.518.34.345.51.81.51 1.382 0 .763-.241 1.39-.734 1.89-.494.5-1.113.746-1.857.746-.583 0-1.04-.172-1.381-.518zm-6.342.372l.95-6.063h1.5l-.36 2.264h1.785l.359-2.264h1.498l-.95 6.063h-1.498l.368-2.363h-1.786l-.367 2.363h-1.499zm-3.712-4.245h1.372l-.61 3.9c-.107.69-.395 1.246-.86 1.655-.459.417-1.023.627-1.688.627a3.685 3.685 0 01-1.838-.482l.646-1.055c.457.246.852.364 1.176.364.619 0 1.058-.354 1.156-.927l.045-.282c-.376.309-.781.464-1.201.464-.97 0-1.517-.69-1.346-1.719l.395-2.536 1.4-.09-.35 2.254c-.073.482.134.781.555.781.421 0 .726-.3.807-.78l.341-2.174zm-4.808 1.7c.072-.427-.206-.71-.7-.71-.439 0-.834.273-1.021.7l1.72.01zm1.023-1.081c.288.5.324 1.163.099 1.972h-2.942c.099.481.484.754 1.014.754.42 0 .869-.127 1.336-.39l.269.881c-.655.373-1.291.555-1.91.555-.584 0-1.059-.172-1.427-.509-.368-.345-.546-.818-.546-1.418 0-.764.241-1.391.725-1.873.494-.491 1.113-.736 1.857-.736.727 0 1.239.255 1.525.764zm-4.547.936l-.421 2.69h-1.382l.368-2.318c.072-.472-.144-.772-.564-.772-.405 0-.718.309-.8.782l-.359 2.308h-1.381l.663-4.254 1.238-.136.027.527c.377-.354.799-.527 1.265-.527.969 0 1.516.682 1.346 1.7zm-6.18.4c0-.5-.278-.818-.735-.818-.529 0-.934.381-1.04.99-.1.592.197.983.725.983.602 0 1.05-.473 1.05-1.155zm-2.627 1.918c-.333-.346-.504-.81-.504-1.382 0-.763.243-1.39.737-1.89.492-.501 1.111-.746 1.855-.746.584 0 1.041.173 1.373.518.341.345.511.81.511 1.382 0 .763-.242 1.39-.735 1.89-.494.5-1.113.746-1.857.746-.583 0-1.04-.172-1.38-.518zm-7.66.372l.95-6.063h1.508l1.12 2.646 1.964-2.646h1.5l-.952 6.063h-1.498l.547-3.435-1.4 1.909h-.905l-.799-1.91-.537 3.436h-1.498zm-3.65-2.545c.071-.427-.206-.71-.7-.71-.44 0-.834.273-1.023.7l1.723.01zm1.023-1.081c.286.5.322 1.163.099 1.972h-2.943c.098.481.485.754 1.014.754.421 0 .87-.127 1.336-.39l.269.881c-.655.373-1.292.555-1.91.555-.584 0-1.059-.172-1.427-.509-.368-.345-.547-.818-.547-1.418 0-.764.242-1.391.727-1.873.493-.491 1.112-.736 1.856-.736.727 0 1.238.255 1.526.764zm-4.018-.718l-.35 1.454a2.247 2.247 0 00-.387-.046c-.725 0-1.2.419-1.318 1.155l-.278 1.781h-1.38l.663-4.227 1.239-.163v.7c.35-.464.806-.7 1.38-.7.17 0 .314.018.432.046zm-5.355 2.054c0-.5-.279-.818-.735-.818-.53 0-.934.381-1.042.99-.098.592.198.983.728.983.6 0 1.049-.473 1.049-1.155zm-2.628 1.918c-.333-.346-.503-.81-.503-1.382 0-.763.243-1.39.735-1.89.494-.501 1.113-.746 1.857-.746.584 0 1.041.173 1.373.518.341.345.511.81.511 1.382 0 .763-.241 1.39-.736 1.89-.493.5-1.112.746-1.856.746-.582 0-1.04-.172-1.381-.518zm-7.66.372l.951-6.063h1.508l1.12 2.646 1.964-2.646h1.498l-.95 6.063h-1.498l.547-3.435-1.4 1.909h-.906l-.798-1.91-.538 3.436H76zM65 35.756c-.002-.148-.006-.297-.01-.447l-.002-.02c-.24-8.263-3.606-16.05-9.482-21.927-5.757-5.758-13.32-9.064-21.362-9.35a.39.39 0 00-.3.128l-2.772 3.076a.282.282 0 00.013.39l3.16 3.03a.411.411 0 00.287.115c8-.025 15.477 2.826 21.094 8.048 4.851 4.51 7.951 10.458 8.933 17.024.041.272.445.242.441-.034v-.033z"/><path fill="#8DC73F" d="M26.846 20.791a27.173 27.173 0 018.478-1.243 27.59 27.59 0 018.723 1.537.704.704 0 00.44.007l2.73-.854a.344.344 0 00.236-.39l-.614-3.413a.46.46 0 00-.28-.347c-3.194-1.313-6.783-2.027-10.432-2.073-2.995-.039-5.883.37-8.584 1.215-6.93 2.166-12.605 7.211-15.977 14.207a30.41 30.41 0 00-2.564 8.037c-.022.135.17.188.219.06 2.975-7.805 9.242-14.122 17.625-16.743m29.03 40.287l-.002.015C54.11 69.826 48.7 77.112 41.372 81.257c-.474.269-.958.501-1.452.704-1.304.648-3.157 1.051-5.211 1.051-2.053 0-3.906-.403-5.209-1.051-.494-.2-.98-.435-1.454-.704-7.329-4.145-12.74-11.431-14.5-20.164l-.004-.015c-3.686-17.19 2.87-26.375 2.87-26.375 3.45-6.443 10.776-9.92 18.297-9.92 7.52 0 14.846 3.477 18.296 9.92 0 0 6.555 9.186 2.872 26.375"/><path fill="#05412E" d="M15.079 45.566c-.232.298.093.67.402.462a20.814 20.814 0 016.07-2.762c2.257-.62 4.453-.825 6.457-.665.351.028.515-.473.206-.627-2.024-1-4.469-1.267-6.975-.578-2.495.685-4.635 2.203-6.16 4.17m32.683-4.17c-2.506-.689-4.952-.423-6.976.578-.31.154-.145.655.206.627 2.004-.16 4.2.045 6.458.665 2.242.615 4.3 1.575 6.069 2.762.309.209.634-.164.402-.462-1.525-1.967-3.664-3.485-6.159-4.17m-18.71 19.75c-.202-.064-.36.18-.219.341 1.361 1.544 3.394 2.525 5.668 2.525 2.271 0 4.305-.98 5.666-2.525.14-.16-.018-.405-.22-.341-1.627.52-3.48.815-5.446.815-1.969 0-3.82-.295-5.449-.815m-3.954-14.7c-2.932-.801-6.28.675-7.704 3.11-.219.364.163.625.452.35a7.36 7.36 0 013.381-1.79 2.849 2.849 0 00-.657 2.27c.22 1.548 1.64 2.623 3.166 2.398 1.527-.227 2.587-1.664 2.363-3.213a2.837 2.837 0 00-.35-1.017c1.557.721 2.64 1.979 3.074 3.255.097.279.554.213.58-.098.182-2.022-1.33-4.514-4.305-5.266m26.054 3.462a7.336 7.336 0 00-3.381-1.79c.518.6.782 1.418.66 2.268-.223 1.549-1.64 2.624-3.167 2.399-1.528-.227-2.585-1.664-2.363-3.213.053-.369.175-.71.348-1.015-1.559.721-2.638 1.977-3.073 3.253-.095.279-.553.213-.58-.098-.183-2.022 1.328-4.514 4.306-5.266 2.932-.8 6.28.676 7.705 3.111.218.364-.163.625-.455.35M35.31 67.298a48.12 48.12 0 0010.408-1.234c.568-.13 1.27-.057 1.282.707.013.86-.529 1.954-.916 2.695-1.065 2.04-2.792 3.724-4.788 4.869A12.77 12.77 0 0135 76.012a12.767 12.767 0 01-6.295-1.677c-1.997-1.145-3.724-2.829-4.788-4.869-.388-.741-.928-1.835-.917-2.695.013-.764.715-.837 1.282-.707a48.124 48.124 0 0010.41 1.234h.618z"/><path fill="#FFF" d="M34.5 73.012c4.247.02 7.937-2.079 9.413-4.384.259-.4-.088-.713-.643-.588a39.692 39.692 0 01-17.54 0c-.554-.125-.902.188-.643.588 1.477 2.306 5.166 4.405 9.413 4.384"/></g></svg>